<svg width="20" height="20" viewBox="0 0 20 20"
  fill="none" xmlns="http://www.w3.org/2000/svg">
  <path d="M1.7056 1L18.2656 8.24154" stroke="white" stroke-linecap="round" stroke-linejoin="round" />
  <path d="M15.1696 9.36316L18.2656 8.24162L17.1136 5.25085" stroke="white" stroke-linecap="round"
    stroke-linejoin="round" />
  <path
    d="M1.72 8.61536H3.88C4.07096 8.61536 4.2541 8.6883 4.38911 8.81813C4.52414 8.94796 4.6 9.12405 4.6 9.30766V19H1V9.30766C1 9.12405 1.07586 8.94796 1.21088 8.81813C1.34591 8.6883 1.52904 8.61536 1.72 8.61536Z"
    stroke="white" stroke-linecap="round" stroke-linejoin="round" />
  <path
    d="M8.92001 10.6924H11.08C11.271 10.6924 11.4541 10.7653 11.5891 10.8952C11.7242 11.025 11.8 11.2011 11.8 11.3847V19.0001H8.20001V11.3847C8.20001 11.2011 8.27587 11.025 8.4109 10.8952C8.54592 10.7653 8.72905 10.6924 8.92001 10.6924Z"
    stroke="white" stroke-linecap="round" stroke-linejoin="round" />
  <path
    d="M16.12 12.7693H18.28C18.4709 12.7693 18.6541 12.8422 18.7892 12.9721C18.9241 13.1019 19 13.278 19 13.4616V19.0001H15.4V13.4616C15.4 13.278 15.4759 13.1019 15.6108 12.9721C15.7459 12.8422 15.9291 12.7693 16.12 12.7693Z"
    stroke="white" stroke-linecap="round" stroke-linejoin="round" />
</svg>