<svg xmlns="http://www.w3.org/2000/svg" xml:space="preserve" width="24.4239mm" height="31.3195mm" version="1.1"
      style="shape-rendering:geometricPrecision; text-rendering:geometricPrecision; image-rendering:optimizeQuality; fill-rule:evenodd; clip-rule:evenodd"
      viewBox="0 0 35.89 46.02" xmlns:xlink="http://www.w3.org/1999/xlink"
      xmlns:xodm="http://www.corel.com/coreldraw/odm/2003">
      <defs>
        <style type="text/css">
          .fil0 {
            fill: #FEFEFE
          }

        </style>
      </defs>
      <g id="Camada_x0020_1">
        <metadata id="CorelCorpID_0Corel-Layer" />
        <g id="_2391821679728">
          <path class="fil0"
            d="M32.73 2.04l1.15 7.15c-0.85,-0.35 -1.41,-1.04 -2.42,-1.05 -0.33,0.09 -3.14,4.47 -3.85,5.41 -4.05,5.39 -10.93,9.68 -18.44,9.1 0.85,-0.35 1.93,-0.54 2.84,-0.84 2.54,-0.83 5.15,-2.09 7.2,-3.54 2.39,-1.68 3.89,-3.16 5.61,-5.3 0.57,-0.71 1.13,-1.26 0.75,-2.28 -0.93,-0.23 -1.09,-0.14 -1.61,0.57 -2.33,3.19 -5.23,5.77 -8.94,7.58 -3.39,1.65 -7.4,2.68 -11.33,2.88 -1.51,0.08 -3.57,-0.36 -3.69,0.78 0.18,1.07 0.79,0.95 1.88,1.16 9.3,1.74 18.39,0.46 24.98,-6.62 2.88,-3.09 3.26,-4.45 5.11,-6.82 1.4,0.31 2.23,1.94 3.81,1.44 0.41,-1.29 -0.45,-4.54 -0.71,-6.04 -1.2,-6.92 0.12,-6.59 -6.77,-3.64 -1.91,0.82 -5.32,1.74 -4.87,2.98 0.62,0.9 2.32,1.02 3.08,1.87 -0.34,0.94 -0.81,1.15 -0.54,2.26 1.11,0.5 1.3,0.2 1.79,-0.85 0.88,-1.91 1.25,-2.27 -0.35,-3 -0.45,-0.2 -0.69,-0.28 -1.02,-0.61l6.34 -2.61z" />
          <path class="fil0"
            d="M25.76 33.93c0,2.03 1.73,2.14 1.73,-0.16l-0.01 -9.72c-0.01,-1.81 -0.03,-2.93 1.93,-2.93 3.39,0 4.41,-0.42 4.41,2.24l0 18.57c0,1.41 -0.23,2.35 -1.68,2.35 -2.54,-0 -4.01,0.39 -4.48,-0.94 -0.78,-2.23 1.08,-7.06 -1.71,-6.06 -0.1,0.3 -0.19,0.64 -0.19,1.07 0,3.28 -0.64,7.62 3.31,7.62 1.31,-0 3.88,0.18 4.76,-0.29 1.33,-0.72 1.71,-2.2 1.71,-3.75l0 -18.4c0,-2.6 -0.98,-4.11 -3.57,-4.11 -3.36,0 -6.21,-0.51 -6.21,4.11l0 10.39z" />
          <path class="fil0"
            d="M12.85 31.07c1.72,0.58 1.29,-0.4 1.62,-1.68 0.33,-1.27 1.08,-1.18 2.5,-1.17 3.57,0.03 3.72,-0.21 3.72,3.49 -0,2.39 -0,4.77 -0,7.16 0,2.66 0.57,5.42 -1.67,5.42 -3.76,0 -4.66,0.49 -4.67,-2.52l-0.01 -7.98c-0.18,-1.23 -1.71,-1.31 -1.71,0.48l0 7.5c0,4.28 2.23,4.22 4.68,4.21 2.24,-0 5.07,0.29 5.07,-3.7l0 -11.93c0,-1.46 -0.51,-2.58 -1.3,-3.25 -0.99,-0.83 -6.43,-1.1 -7.61,0.44 -0.64,0.84 -1.07,2.36 -0.63,3.52z" />
          <path class="fil0"
            d="M1 40c3.15,0.57 -0.03,-5.17 2.42,-5.8 0.3,-0.08 3.59,-0.09 4,-0.04 1.26,0.15 1.33,1.42 1.33,2.67 0,5.52 0.72,7.46 -2.17,7.46 -5.34,0 -3.18,-0.3 -4.46,-2.47 -2.73,-0.5 -1.45,4.16 1.91,4.16 3.52,0 6.42,0.72 6.42,-4.21 0,-4.12 0.87,-9.31 -3.19,-9.31 -3.16,0 -5.69,-0.55 -6.43,2.54 -0.29,1.2 -0.32,4.24 0.17,5z" />
          <path class="fil0"
            d="M30.6 42.62c1.74,1.27 1.5,-1.53 1.5,-2.73 -0,-2.11 0.14,-13.73 -0.13,-14.16 -0.39,-0.64 -1.4,-0.61 -1.56,0.36 -0.08,0.5 -0.01,1.81 -0.01,2.39 0,2.44 -0.24,13.35 0.2,14.14z" />
          <path class="fil0"
            d="M18.88 42.68c0.29,-1.22 0.14,-4.19 0.14,-5.68 0,-2.16 0.43,-4.99 -0.86,-4.99 -1.05,-0 -0.86,1.14 -0.85,2.09 0.02,1.96 -0.14,7.38 0.13,8.58 0.72,0.33 0.73,0.33 1.44,-0.01z" />
          <path class="fil0"
            d="M5.4 42.28c0.14,0.81 1.35,1 1.64,0.12 0.11,-0.33 0.1,-2.3 0.01,-2.65 -0.33,-1.3 -2.27,-0.96 -1.65,2.53z" />
        </g>
      </g>
</svg>