<svg width="22" height="19" viewBox="0 0 22 19"
  fill="none" xmlns="http://www.w3.org/2000/svg">
  <path
    d="M7.92312 7.53846C10.0473 7.53846 11.7693 6.07477 11.7693 4.26923C11.7693 2.46369 10.0473 1 7.92312 1C5.79895 1 4.07697 2.46369 4.07697 4.26923C4.07697 6.07477 5.79895 7.53846 7.92312 7.53846Z"
    stroke="white" stroke-linecap="round" stroke-linejoin="round" />
  <path
    d="M7.92308 16.6923H1V15.9834C1.01225 14.9867 1.3215 14.0088 1.89888 13.1413C2.47626 12.2737 3.30292 11.5446 4.30165 11.0222C5.30038 10.4998 6.4386 10.2011 7.60997 10.1539C7.7144 10.1497 7.8188 10.1475 7.92308 10.1473C8.02735 10.1475 8.13177 10.1497 8.2362 10.1539C9.40757 10.2011 10.5458 10.4998 11.5445 11.0222C12.1188 11.3226 12.6362 11.6913 13.0821 12.1155"
    stroke="white" stroke-linecap="round" stroke-linejoin="round" />
  <path d="M21 11.4615L14.8462 18L11.7693 16.0385" stroke="white" stroke-linecap="round"
    stroke-linejoin="round" />
</svg>