<svg width="36" height="36" viewBox="0 0 36 36" fill="none"
  xmlns="http://www.w3.org/2000/svg">
  <path d="M2.33279 1L33.6128 14.6785" stroke="#36635B" stroke-linecap="round" stroke-linejoin="round" />
  <path d="M27.7648 16.7972L33.6128 14.6787L31.4368 9.02948" stroke="#36635B" stroke-linecap="round"
    stroke-linejoin="round" />
  <path
    d="M2.36 15.3846H6.44C6.8007 15.3846 7.14663 15.5224 7.40166 15.7677C7.65671 16.0129 7.8 16.3455 7.8 16.6923V35H1V16.6923C1 16.3455 1.14328 16.0129 1.39834 15.7677C1.65338 15.5224 1.9993 15.3846 2.36 15.3846Z"
    stroke="#36635B" stroke-linecap="round" stroke-linejoin="round" />
  <path
    d="M15.96 19.3077H20.04C20.4007 19.3077 20.7466 19.4455 21.0017 19.6908C21.2567 19.936 21.4 20.2686 21.4 20.6154V35H14.6V20.6154C14.6 20.2686 14.7433 19.936 14.9983 19.6908C15.2534 19.4455 15.5993 19.3077 15.96 19.3077Z"
    stroke="#36635B" stroke-linecap="round" stroke-linejoin="round" />
  <path
    d="M29.56 23.2308H33.64C34.0007 23.2308 34.3467 23.3686 34.6018 23.6139C34.8567 23.8591 35 24.1917 35 24.5385V35.0001H28.2V24.5385C28.2 24.1917 28.3433 23.8591 28.5982 23.6139C28.8533 23.3686 29.1993 23.2308 29.56 23.2308Z"
    stroke="#36635B" stroke-linecap="round" stroke-linejoin="round" />
</svg>