<svg width="36" height="36" viewBox="0 0 36 36" fill="none"
  xmlns="http://www.w3.org/2000/svg">
  <path d="M2.33282 16.7971L33.6129 3.11865" stroke="#36635B" stroke-linecap="round"
    stroke-linejoin="round" />
  <path d="M27.7648 1L33.6128 3.11846L31.4368 8.74154" stroke="#36635B" stroke-linecap="round"
    stroke-linejoin="round" />
  <path
    d="M35 35H28.2V16.6923C28.2 16.3455 28.3434 16.0129 28.5982 15.7677C28.8534 15.5224 29.1993 15.3846 29.56 15.3846H33.64C34.0007 15.3846 34.3467 15.5224 34.6018 15.7677C34.8567 16.0129 35 16.3455 35 16.6923V35Z"
    stroke="#36635B" stroke-linecap="round" stroke-linejoin="round" />
  <path
    d="M21.4001 35H14.6001V20.6154C14.6001 20.2685 14.7434 19.9359 14.9984 19.6907C15.2534 19.4455 15.5994 19.3077 15.9601 19.3077H20.0401C20.4008 19.3077 20.7467 19.4455 21.0017 19.6907C21.2568 19.9359 21.4001 20.2685 21.4001 20.6154V35Z"
    stroke="#36635B" stroke-linecap="round" stroke-linejoin="round" />
  <path
    d="M7.8 34.9999H1V24.5384C1 24.1916 1.14329 23.859 1.39834 23.6137C1.65338 23.3685 1.9993 23.2307 2.36 23.2307H6.44C6.8007 23.2307 7.14663 23.3685 7.40166 23.6137C7.65671 23.859 7.8 24.1916 7.8 24.5384V34.9999Z"
    stroke="#36635B" stroke-linecap="round" stroke-linejoin="round" />
</svg>