<svg width="34" height="34" viewBox="0 0 34 34" fill="none"
  xmlns="http://www.w3.org/2000/svg">
  <path d="M1 5.62244C1.65247 7.37093 2.89275 8.69434 4.15884 9.63132" stroke="#36635B" stroke-width="1.5"
    stroke-linecap="round" stroke-linejoin="round" />
  <path d="M16.0542 11.3334H11.2843" stroke="#36635B" stroke-width="1.5" stroke-linecap="round"
    stroke-linejoin="round" />
  <path
    d="M23.982 15.195C23.6269 15.195 23.3391 14.9071 23.3391 14.5521C23.3391 14.1971 23.6269 13.9092 23.982 13.9092"
    stroke="#36635B" stroke-width="1.5" stroke-linecap="round" stroke-linejoin="round" />
  <path
    d="M23.982 15.195C24.337 15.195 24.6248 14.9071 24.6248 14.5521C24.6248 14.1971 24.337 13.9092 23.982 13.9092"
    stroke="#36635B" stroke-width="1.5" stroke-linecap="round" stroke-linejoin="round" />
  <path
    d="M25.9635 2.01053V7.34388C29.9811 9.01788 30.7045 11.8745 30.7045 15.6072L32.9545 17.4554V23.1607C31.6284 26.0135 29.1775 27.5 25.9635 28.6386V31.1697C25.9635 31.8799 25.3878 32.4554 24.6778 32.4554H20.178C19.4679 32.4554 18.8923 31.8799 18.8923 31.1697V28.6386H10.8164V30.9689C10.8164 31.6791 10.2407 32.2546 9.53065 32.2546H4.99038C4.28023 32.2546 3.70456 31.6804 3.70464 30.9701C3.70482 29.4124 3.705 26.9307 3.70448 26.4151C3.70435 26.2955 3.4676 25.6385 3.16199 24.6208C2.26705 21.64 0.781574 16.6098 2.91812 11.8745C4.70924 7.90474 9.04586 4.87644 18.4098 5.40181C19.7544 1.8499 23.3115 0.922812 25.1278 1.0049C25.6449 1.02827 25.9635 1.49301 25.9635 2.01053Z"
    stroke="#36635B" stroke-width="1.5" stroke-linecap="round" stroke-linejoin="round" />
</svg>